<svg width="600" height="600" xmlns="http://www.w3.org/2000/svg">
    <path style="fill:#29aadc;stroke:none"
          d="M298 52.598c-25.971 6.19-51.759 17.587-77 26.324-37.294 12.908-74.819 25.153-112 38.386-15.246 5.426-30.742 10.153-46 15.55-5.676 2.008-13.79 3.33-16.821 9.161C43.174 147.799 45 157.636 45 164v299c0 6.505-2.046 17.316 1.742 22.942 3.405 5.057 10.883 5.686 16.258 7.402 13.928 4.446 28.024 8.383 42 12.681 46.536 14.309 93.221 28.494 140 41.975 11.68 3.366 23.399 6.724 35 10.341 6.202 1.934 13.457 5.396 20 3.906 21.288-4.847 42.333-14.209 63-21.244l126-43c15.665-5.332 31.422-10.37 47-15.953 5.28-1.892 13.498-2.962 16.543-8.238C555.698 468.345 554 459.098 554 453c0-15.621-.644-31.395.039-47C556.916 340.307 556 273.76 556 208v-57c0-6.448 2.03-17.183-2.009-22.66-3.353-4.545-10.945-5.226-15.991-6.835-14.241-4.541-28.687-8.491-43-12.785-45.959-13.789-92.286-26.648-138-41.225-12.903-4.114-25.982-7.889-39-11.636-6.475-1.864-13.156-4.892-20-3.261M515 135c-14.381 9.548-35.691 13.842-52 19.505-34.117 11.846-68.174 24.271-102 36.919-13.619 5.093-27.278 10.111-41 14.919-5.441 1.907-12.099 5.96-18 5.401-19.352-1.836-41.257-12.941-60-18.542-51.691-15.446-103.427-35.15-156-47.202 8.087-6.05 21.425-8.324 31-11.515 20.381-6.794 40.617-14.024 61-20.818 27.024-9.008 54.244-17.943 81-27.72 12.647-4.622 29.552-13.597 43-14.18 6.149-.265 13.141 2.984 19 4.654 14.068 4.011 27.936 8.667 42 12.67 34.428 9.8 68.836 20.039 103 30.718 15.833 4.948 34.196 7.76 49 15.191m22 13-2 315-56 18.656-104 35.205L306 540V254l1.028-22.298L323 225.05l42-15.242 105-37.861L537 148M287 540l-56-16.116-112-33.54-39-11.485-14.972-5.587L64 451V159c54.337 11.245 107.725 32.993 161 48.576 14.368 4.202 28.76 8.474 43 13.094 4.405 1.429 13.052 2.094 15.972 6.029C287.421 231.345 285 244.36 285 250c0 19.969 1 39.968 1 60 0 76.721 1 153.278 1 230m-77-196v-2c22.262-8.624 23.43-44.587 8.471-59.996-22.976-23.669-67.656-19.741-90.286 1.611-10.192 9.617-6.608 27.663 8.815 28.338 4.17.183 7.585-.877 11-3.257 10.65-7.422 46.327-22.964 46.802 4.304.472 27.1-45.994 7.641-42.433 34 .611 4.528 3.585 8.49 7.635 10.543 11.071 5.614 45.41-.583 38.196 23.457-.743 2.475-2.023 4.868-3.732 6.812-10.285 11.697-31.147 5.864-42.468-.688-7.816-4.523-15.794-10.511-24.96-4.896-17.191 10.531-1.268 27.416 9.96 33.463 22.963 12.366 57.58 14.167 79-2.372 24.131-18.631 21.664-56.385-6-69.319m155-73.467c-7.985 1.941-12.577 9.65-12.96 17.467-1.04 21.224-.04 42.748-.04 64v42c0 6.875-.639 15.079 3.653 20.957C361.038 422.332 369.845 422 378 422c18.851 0 38.526 1.611 57-2.898 54.958-13.415 75.903-83.418 37.714-125.063C451.914 271.358 422.494 270 394 270c-9.142 0-20.09-1.633-29 .533M386 391v-66c0-5.467-2.462-18.991 1.028-23.397C389.147 298.927 395.02 300 398 300c10.15 0 20.211-.086 30 3.029 40.086 12.753 37.616 75.005-2 86.261-12.546 3.565-27.046 1.71-40 1.71z"/>
</svg>
