<?xml version="1.0" encoding="UTF-8" standalone="no"?>
<!-- Created with Inkscape (http://www.inkscape.org/) -->

<svg
    xmlns:inkscape="http://www.inkscape.org/namespaces/inkscape"
    xmlns:sodipodi="http://sodipodi.sourceforge.net/DTD/sodipodi-0.dtd"
    version="1.1"
    id="svg2"
    width="600"
    height="600"
    viewBox="0 0 600 600"
    sodipodi:docname="3D.svg"
    inkscape:version="1.1.2 (0a00cf5339, 2022-02-04)"
    xmlns="http://www.w3.org/2000/svg"
>
    <defs
        id="defs6"/>
    <sodipodi:namedview
        id="namedview4"
        pagecolor="#ffffff"
        bordercolor="#666666"
        borderopacity="1.0"
        inkscape:pageshadow="2"
        inkscape:pageopacity="0.0"
        inkscape:pagecheckerboard="0"
        showgrid="false"
        inkscape:zoom="1.0733333"
        inkscape:cx="300"
        inkscape:cy="300.46584"
        inkscape:window-width="1920"
        inkscape:window-height="1127"
        inkscape:window-x="1920"
        inkscape:window-y="0"
        inkscape:window-maximized="1"
        inkscape:current-layer="g8"/>
    <g
        inkscape:groupmode="layer"
        inkscape:label="Image"
        id="g8">
        <path
            style="fill:#29aadc;stroke:none"
            d="m 298,52.598 c -25.971,6.1903 -51.759,17.5874 -77,26.3241 -37.294,12.9083 -74.819,25.1529 -112,38.3859 -15.2462,5.426 -30.7422,10.153 -46,15.55 -5.6755,2.008 -13.7893,3.33 -16.821,9.161 C 43.1736,147.799 45,157.636 45,164 v 53 189 57 c 0,6.505 -2.0458,17.316 1.7423,22.942 3.405,5.057 10.8825,5.686 16.2577,7.402 13.9283,4.446 28.0244,8.383 42,12.681 46.536,14.309 93.221,28.494 140,41.975 11.68,3.366 23.399,6.724 35,10.341 6.202,1.934 13.457,5.396 20,3.906 21.288,-4.847 42.333,-14.209 63,-21.244 l 126,-43 c 15.665,-5.332 31.422,-10.37 47,-15.953 5.28,-1.892 13.498,-2.962 16.543,-8.238 C 555.698,468.345 554,459.098 554,453 c 0,-15.621 -0.644,-31.395 0.039,-47 C 556.916,340.307 556,273.76 556,208 v -57 c 0,-6.448 2.03,-17.183 -2.009,-22.66 -3.353,-4.545 -10.945,-5.226 -15.991,-6.835 -14.241,-4.541 -28.687,-8.491 -43,-12.785 C 449.041,94.931 402.714,82.0721 357,67.4954 344.097,63.381 331.018,59.6065 318,55.8588 311.525,53.9946 304.844,50.9667 298,52.598 M 515,135 c -14.381,9.548 -35.691,13.842 -52,19.505 -34.117,11.846 -68.174,24.271 -102,36.919 -13.619,5.093 -27.278,10.111 -41,14.919 -5.441,1.907 -12.099,5.96 -18,5.401 -19.352,-1.836 -41.257,-12.941 -60,-18.542 C 190.309,177.756 138.573,158.052 86,146 c 8.0874,-6.05 21.425,-8.324 31,-11.515 20.381,-6.794 40.617,-14.024 61,-20.818 27.024,-9.008 54.244,-17.9429 81,-27.7202 12.647,-4.6217 29.552,-13.5971 43,-14.179 6.149,-0.2662 13.141,2.9832 19,4.6535 14.068,4.0109 27.936,8.6663 42,12.6698 34.428,9.8002 68.836,20.0389 103,30.7179 15.833,4.948 34.196,7.76 49,15.191 m 22,13 -2,315 -56,18.656 L 375,516.861 306,540 V 313 254 L 307.028,231.702 323,225.05 365,209.808 470,171.947 537,148 M 287,540 231,523.884 119,490.344 80,478.859 65.0278,473.272 64,451 V 391 159 c 54.337,11.245 107.725,32.993 161,48.576 14.368,4.202 28.76,8.474 43,13.094 4.405,1.429 13.052,2.094 15.972,6.029 3.449,4.646 1.028,17.661 1.028,23.301 0,19.969 1,39.968 1,60 0,76.721 1,153.278 1,230 M 210,344 v -2 c 22.262,-8.624 23.43,-44.587 8.471,-59.996 -22.976,-23.669 -67.656,-19.741 -90.286,1.611 -10.192,9.617 -6.608,27.663 8.815,28.338 4.17,0.183 7.585,-0.877 11,-3.257 10.65,-7.422 46.327,-22.964 46.802,4.304 0.472,27.1 -45.994,7.641 -42.433,34 0.611,4.528 3.585,8.49 7.635,10.543 11.071,5.614 45.41,-0.583 38.196,23.457 -0.743,2.475 -2.023,4.868 -3.732,6.812 -10.285,11.697 -31.147,5.864 -42.468,-0.688 -7.816,-4.523 -15.794,-10.511 -24.96,-4.896 -17.191,10.531 -1.268,27.416 9.96,33.463 22.963,12.366 57.58,14.167 79,-2.372 24.131,-18.631 21.664,-56.385 -6,-69.319 m 155,-73.467 c -7.985,1.941 -12.577,9.65 -12.96,17.467 C 351,309.224 352,330.748 352,352 v 42 c 0,6.875 -0.639,15.079 3.653,20.957 5.385,7.375 14.192,7.043 22.347,7.043 18.851,0 38.526,1.611 57,-2.898 54.958,-13.415 75.903,-83.418 37.714,-125.063 C 451.914,271.358 422.494,270 394,270 c -9.142,0 -20.09,-1.633 -29,0.533 M 386,391 v -66 c 0,-5.467 -2.462,-18.991 1.028,-23.397 C 389.147,298.927 395.02,300 398,300 c 10.15,0 20.211,-0.086 30,3.029 40.086,12.753 37.616,75.005 -2,86.261 -12.546,3.565 -27.046,1.71 -40,1.71 z"
            id="path30"/>
    </g>
</svg>
